# xmcd
#
# Track frame offsets:
#	150
#	17306
#	34286
#	52462
#
# Disc length: 950 seconds
#
# Revision: 2
# Processed by: cddbd v1.5.1PL2 Copyright (c) Steve Scherf et al.
# Submitted via: EasyCDDAExtractor 8.0.1.1
#
DISCID=2f03b404
DTITLE=จั๊กจั่น วันวิสา - กุหลาบที่บ่กล้าส่ง
DYEAR=2005
DGENRE=Pop
TTITLE0=กุหลาบที่บ่กล้าส่ง
TTITLE1=เมื่อไรใจก็รอ
TTITLE2=ฮักอ้ายเสมอ
TTITLE3=Bye bye baby
EXTD=
EXTT0=
EXTT1=
EXTT2=
EXTT3=
PLAYORDER=
